<mxfile host="Electron" modified="2023-12-27T01:48:09.336Z" agent="Mozilla/5.0 (Windows NT 10.0; Win64; x64) AppleWebKit/537.36 (KHTML, like Gecko) draw.io/21.2.1 Chrome/112.0.5615.87 Electron/24.1.2 Safari/537.36" etag="SDkHtGeOEelcgp6UUngI" version="21.2.1" type="device">
  <diagram name="Page-1" id="WROJZ2TJsB8iWTvR7DHm">
    <mxGraphModel dx="1036" dy="606" grid="1" gridSize="10" guides="1" tooltips="1" connect="1" arrows="1" fold="1" page="1" pageScale="1" pageWidth="827" pageHeight="1169" math="0" shadow="0">
      <root>
        <mxCell id="0" />
        <mxCell id="1" parent="0" />
        <mxCell id="Q7jJPxUvrerCB2hbGKd4-5" style="edgeStyle=orthogonalEdgeStyle;rounded=0;orthogonalLoop=1;jettySize=auto;html=1;exitX=1;exitY=0.5;exitDx=0;exitDy=0;entryX=0;entryY=0.5;entryDx=0;entryDy=0;" parent="1" source="Q7jJPxUvrerCB2hbGKd4-1" target="Q7jJPxUvrerCB2hbGKd4-3" edge="1">
          <mxGeometry relative="1" as="geometry" />
        </mxCell>
        <mxCell id="Q7jJPxUvrerCB2hbGKd4-1" value="&lt;b&gt;SOEC&lt;/b&gt;" style="rounded=1;whiteSpace=wrap;html=1;fillColor=#f8cecc;strokeColor=#b85450;" parent="1" vertex="1">
          <mxGeometry x="170" y="280" width="120" height="40" as="geometry" />
        </mxCell>
        <mxCell id="Q7jJPxUvrerCB2hbGKd4-11" style="edgeStyle=orthogonalEdgeStyle;rounded=0;orthogonalLoop=1;jettySize=auto;html=1;exitX=1;exitY=0.5;exitDx=0;exitDy=0;" parent="1" source="Q7jJPxUvrerCB2hbGKd4-2" edge="1">
          <mxGeometry relative="1" as="geometry">
            <mxPoint x="810" y="300" as="targetPoint" />
          </mxGeometry>
        </mxCell>
        <mxCell id="Q7jJPxUvrerCB2hbGKd4-2" value="SOFC" style="rounded=1;whiteSpace=wrap;html=1;fontStyle=1;fillColor=#d5e8d4;strokeColor=#82b366;" parent="1" vertex="1">
          <mxGeometry x="610" y="280" width="120" height="40" as="geometry" />
        </mxCell>
        <mxCell id="Q7jJPxUvrerCB2hbGKd4-6" style="edgeStyle=orthogonalEdgeStyle;rounded=0;orthogonalLoop=1;jettySize=auto;html=1;exitX=1;exitY=0.5;exitDx=0;exitDy=0;entryX=0;entryY=0.5;entryDx=0;entryDy=0;" parent="1" source="Q7jJPxUvrerCB2hbGKd4-3" target="Q7jJPxUvrerCB2hbGKd4-2" edge="1">
          <mxGeometry relative="1" as="geometry" />
        </mxCell>
        <mxCell id="Q7jJPxUvrerCB2hbGKd4-3" value="&lt;b&gt;Storage Tank&lt;/b&gt;" style="rounded=1;whiteSpace=wrap;html=1;fillColor=#dae8fc;strokeColor=#6c8ebf;" parent="1" vertex="1">
          <mxGeometry x="390" y="280" width="120" height="40" as="geometry" />
        </mxCell>
        <mxCell id="Q7jJPxUvrerCB2hbGKd4-7" value="&lt;b&gt;Hydrogen &lt;font color=&quot;#ff0000&quot;&gt;V(t) (+)&lt;/font&gt;&lt;/b&gt;" style="text;html=1;strokeColor=none;fillColor=none;align=center;verticalAlign=middle;whiteSpace=wrap;rounded=0;" parent="1" vertex="1">
          <mxGeometry x="310" y="270" width="60" height="30" as="geometry" />
        </mxCell>
        <mxCell id="Q7jJPxUvrerCB2hbGKd4-9" value="&lt;b&gt;Hydrogen&lt;br&gt;&lt;font color=&quot;#ff0000&quot;&gt;V(t) (-)&lt;/font&gt;&lt;br&gt;&lt;/b&gt;" style="text;html=1;strokeColor=none;fillColor=none;align=center;verticalAlign=middle;whiteSpace=wrap;rounded=0;" parent="1" vertex="1">
          <mxGeometry x="530" y="270" width="60" height="30" as="geometry" />
        </mxCell>
        <mxCell id="Q7jJPxUvrerCB2hbGKd4-10" value="" style="endArrow=classic;html=1;rounded=0;entryX=0;entryY=0.5;entryDx=0;entryDy=0;" parent="1" target="Q7jJPxUvrerCB2hbGKd4-1" edge="1">
          <mxGeometry width="50" height="50" relative="1" as="geometry">
            <mxPoint x="80" y="300" as="sourcePoint" />
            <mxPoint x="100" y="280" as="targetPoint" />
          </mxGeometry>
        </mxCell>
        <mxCell id="Q7jJPxUvrerCB2hbGKd4-12" value="&lt;b&gt;Charge &lt;font color=&quot;#ff0000&quot;&gt;E(t) (+)&lt;/font&gt;&lt;/b&gt;" style="text;html=1;strokeColor=none;fillColor=none;align=center;verticalAlign=middle;whiteSpace=wrap;rounded=0;fontColor=#3399FF;" parent="1" vertex="1">
          <mxGeometry x="90" y="270" width="60" height="30" as="geometry" />
        </mxCell>
        <mxCell id="Q7jJPxUvrerCB2hbGKd4-13" value="&lt;b&gt;Discharge&lt;br&gt;&lt;font color=&quot;#ff0000&quot;&gt;E(t) (-)&lt;/font&gt;&lt;br&gt;&lt;/b&gt;" style="text;html=1;strokeColor=none;fillColor=none;align=center;verticalAlign=middle;whiteSpace=wrap;rounded=0;fontColor=#3399FF;" parent="1" vertex="1">
          <mxGeometry x="740" y="270" width="60" height="30" as="geometry" />
        </mxCell>
        <mxCell id="Q7jJPxUvrerCB2hbGKd4-14" value="&lt;b&gt;1MW&lt;/b&gt;" style="text;html=1;strokeColor=none;fillColor=none;align=center;verticalAlign=middle;whiteSpace=wrap;rounded=0;" parent="1" vertex="1">
          <mxGeometry x="200" y="250" width="60" height="30" as="geometry" />
        </mxCell>
        <mxCell id="Q7jJPxUvrerCB2hbGKd4-15" value="&lt;b&gt;1MW&lt;/b&gt;" style="text;html=1;strokeColor=none;fillColor=none;align=center;verticalAlign=middle;whiteSpace=wrap;rounded=0;" parent="1" vertex="1">
          <mxGeometry x="640" y="250" width="60" height="30" as="geometry" />
        </mxCell>
        <mxCell id="Q7jJPxUvrerCB2hbGKd4-16" value="Efficiency Simplified Model" style="text;html=1;strokeColor=none;fillColor=none;align=center;verticalAlign=middle;whiteSpace=wrap;rounded=0;fontStyle=1" parent="1" vertex="1">
          <mxGeometry x="170" y="330" width="120" height="30" as="geometry" />
        </mxCell>
        <mxCell id="Q7jJPxUvrerCB2hbGKd4-18" value="Efficiency Simplified Model" style="text;html=1;strokeColor=none;fillColor=none;align=center;verticalAlign=middle;whiteSpace=wrap;rounded=0;fontStyle=1" parent="1" vertex="1">
          <mxGeometry x="610" y="330" width="120" height="30" as="geometry" />
        </mxCell>
        <mxCell id="Q7jJPxUvrerCB2hbGKd4-25" style="edgeStyle=orthogonalEdgeStyle;rounded=0;orthogonalLoop=1;jettySize=auto;html=1;exitX=0.25;exitY=1;exitDx=0;exitDy=0;dashed=1;fillColor=#a20025;strokeColor=#6F0000;" parent="1" source="Q7jJPxUvrerCB2hbGKd4-19" edge="1">
          <mxGeometry relative="1" as="geometry">
            <mxPoint x="120" y="310" as="targetPoint" />
          </mxGeometry>
        </mxCell>
        <mxCell id="Q7jJPxUvrerCB2hbGKd4-26" style="edgeStyle=orthogonalEdgeStyle;rounded=0;orthogonalLoop=1;jettySize=auto;html=1;exitX=0.75;exitY=1;exitDx=0;exitDy=0;dashed=1;fillColor=#a20025;strokeColor=#6F0000;" parent="1" source="Q7jJPxUvrerCB2hbGKd4-19" edge="1">
          <mxGeometry relative="1" as="geometry">
            <mxPoint x="770" y="310" as="targetPoint" />
          </mxGeometry>
        </mxCell>
        <mxCell id="Q7jJPxUvrerCB2hbGKd4-19" value="Optimal Size" style="text;html=1;strokeColor=none;fillColor=none;align=center;verticalAlign=middle;rounded=0;fontStyle=1;fontColor=#EA6B66;" parent="1" vertex="1">
          <mxGeometry x="390" y="330" width="120" height="30" as="geometry" />
        </mxCell>
        <mxCell id="Q7jJPxUvrerCB2hbGKd4-23" style="edgeStyle=orthogonalEdgeStyle;rounded=0;orthogonalLoop=1;jettySize=auto;html=1;exitX=0;exitY=0.5;exitDx=0;exitDy=0;entryX=0.5;entryY=0;entryDx=0;entryDy=0;dashed=1;fillColor=#1ba1e2;strokeColor=#006EAF;" parent="1" source="Q7jJPxUvrerCB2hbGKd4-21" target="Q7jJPxUvrerCB2hbGKd4-12" edge="1">
          <mxGeometry relative="1" as="geometry" />
        </mxCell>
        <mxCell id="Q7jJPxUvrerCB2hbGKd4-24" style="edgeStyle=orthogonalEdgeStyle;rounded=0;orthogonalLoop=1;jettySize=auto;html=1;exitX=1;exitY=0.5;exitDx=0;exitDy=0;entryX=0.5;entryY=0;entryDx=0;entryDy=0;dashed=1;fillColor=#1ba1e2;strokeColor=#006EAF;" parent="1" source="Q7jJPxUvrerCB2hbGKd4-21" target="Q7jJPxUvrerCB2hbGKd4-13" edge="1">
          <mxGeometry relative="1" as="geometry" />
        </mxCell>
        <mxCell id="Q7jJPxUvrerCB2hbGKd4-21" value="" style="shape=image;imageAspect=0;aspect=fixed;verticalLabelPosition=bottom;verticalAlign=top;image=data:image/png,iVBORw0KGgoAAAANSUhEUgAABH0AAAKnCAYAAAAbYzHHAAAAAXNSR0IArs4c6QAAAARnQU1BAACxjwv8YQUAAAAJcEhZcwAAEnQAABJ0Ad5mH3gAAF6KSURBVHhe7d1/bKR3Yt/39I8C/aMtkKBogaLoHymCtiiaFA2KIC7SA5I4aRo0RRGkARqgRf9IAqSI0QSoXMjunXs1zvA5viY+9NzI9jlWEvvsk6X75ZudvdEsJR41WoricrXL5R5FieLtiuLyqNulVqJ4vDDfzjMz3B2Sz5f7PKvlPM/zndcL+OCOM7M/qOWO+Lz1zDN/KAAAAACQHNEHAAAAIEGiDwAAAECCRB8AAACABIk+AAAAAAkSfQAAAAASJPoAAAAAJEj0AQAAAEiQ6AMAAACQINEHAAAAIEGiDwAAAECCRB8AAACABIk+AAAAAAkSfQAAAAASJPoAAAAAJEj0AQAAAEiQ6AMAAACQINEHAAAAIEGiDwAAAECCRB8AAACABIk+AAAAAAkSfQAAAAASJPoAAAAAJEj0AQAAAEiQ6AMAAACQINEHAAAAIEGizwT86Ec/Cnt7e9F9+OGHYX9/38zMzMzMzMymcAcHB6OC8GSJPicc7G2F9avzYfbFdui9NbrxgYOwtdILMxdbodVdCjujW8Phdlie64RWq3/7hU6Yu7EdDkd3ZbLos729nbutra1w586dcPfuXbNje//993NvNzM7uR/+8IeeM8ys8LLnjGx595mZ2eSXPSffu3dvVBCeLNHnmLUw35kN81evhflu60T0OQzbV7uhdWkxbNzdPxZ1dq/PhNZL18LOQf9R91fDXLsTFt8b3fkIH3zwwSD8wEnZAdyPf/zj0UcAcdl/XMi+WQAo4v79+4MzzQGoh+xMnyz+nAfRJ9dOWDoZfQ7XQu/CbFj5aPTxA/thZbYV5tYeZqD1V1uh+8aD84DOJPoQI/oARYk+QBmiD0C9iD4TlxN9NuZDe2Yu9C61hy/j6i6EjUEAOv3Ynavd0L0q+vDJiD5AUaIPUIboA1Avos/E5USft3qh1eqGpc3spV0HYetKN7TmVsO+6MM5EX2AokQfoAzRB6BeRJ+Ji0Sf3trog773r4VuqxfWRB/OiegDFCX6AGWIPgD1IvpMXE70We+F1sy1sDv68Cj6rLumD+dE9AGKEn2AMkQfgHoRfSYuJ/ocboT5i+3QW7sfDg/3w+aDl3eN3r3r0lLY8u5dPEGiD1CU6AOUIfoA1IvoM3E50afv8M5ymOu0Bhdybl86upBzdsfdsNLrDC/wfKET5m5sH3tL97OIPsSIPkBRog9QhugDUC+iT8JEH2JEH6Ao0QcoQ/QBqBfRJ2GiDzGiD1CU6AOUIfoA1IvokzDRhxjRByhK9AHKEH0A6kX0SZjoQ4zoAxQl+gBliD4A9SL6JEz0IUb0AYoSfYAyRB+AehF9Eib6ECP6AEWJPkAZog9AvYg+CRN9iBF9gKJEH6AM0QegXkSfhIk+xIg+QFGiD1CG6ANQL6JPwkQfYkQfoCjRByhD9AGoF9EnYaIPMaIPUJToA5Qh+gDUi+iTMNGHGNEHKEr0AcoQfQDqRfRJmOhDjOgDFCX6AGWIPgD1IvokTPQhRvQBihJ9gDJEH4B6EX0SJvoQI/oARYk+QBmiD0C9iD4JE32IEX2AokQfoAzRB6BeRJ+EiT7EiD5AUaIPUIbo01z/7ey3wqe6zzd2/+Dm4ugzAcaJPgkTfYgRfYCiRB+gjCz4iD7N9IdfeCb8od/9YmP3N1/rjj4TYJzokzDRhxjRByhK9AHKEH2aS/SBNIk+CRN9iBF9gKJEH6AM0ae5RB9Ik+iTMNGHGNEHKEr0AcoQfZprPPr8pxd+e3RrfX3vg7uiDxQg+iRM9CFG9AGKEn2AMlzIublEH0iT6JMw0YcY0QcoSvQByhB9mkv0gTSJPgkTfYgRfYCiRB+gDNGnuUQfSJPokzDRhxjRByhK9AHKEH2aS/SBNIk+CRN9iBF9gKJEH6AM0ae5RB9Ik+iTMNGHGNEHKEr0AcoQfZpL9IE0iT4JE32IEX2AokQfoAzRp7lEH0iT6JMw0YcY0QcoSvQByhB9mkv0gTSJPgkTfYgRfYCiRB+gDNGnuUQfSJPokzDRhxjRByhK9AHKEH2aS/SBNIk+CRN9iBF9gKJEH6AM0ae5RB9Ik+iTMNGHGNEHKEr0AcoQfZpL9IE0iT4JE32IEX2AokQfoAzRp7lEH0iT6JMw0YcY0QcoSvQByhB9mkv0gTSJPgkTfYgRfYCiRB+gDNGnuUQfSJPokzDRhxjRByhK9AHKEH2aS/SBNIk+CRN9iBF9gKJEH6AM0ae5RB9Ik+iTMNGHGNEHKEr0AcoQfZpL9IE0iT4JE32IEX2AokQfoAzRp7lEH0iT6JMw0YcY0QcoSvQByhB9mkv0gTSJPgkTfYgRfYCiRB+gDNGnuUQfSJPokzDRhxjRByhK9AHKEH2aS/SBNIk+CRN9iBF9gKJEH6AM0ae5RB9Ik+iTMNGHGNEHKEr0AcoQfZpL9IE0iT4JE32IEX2AokQfoAzRp7lEH0iT6JMw0YcY0QcoSvQByhB9mkv0gTSJPgkTfYgRfYCiRB+gDNGnuUQfSJPokzDRhxjRByhK9AHKEH2aS/SBNIk+CRN9iBF9gKJEH6AM0ae5RB9Ik+iTMNGHGNEHKEr0AcoQfZpL9IE0iT4JE32IEX2AokQfoAzRp7lEH0iT6JMw0YcY0QcoSvQByhB9mqvp0aeJ+423l0efDZwf0Sdhog8xog9QlOgDlCH6NNcfeeHXHsSIP97+ndGt9bV6v/nR58tv3xh9NnB+RJ+EiT7EiD5AUaIPUIbo01zO9Jn8nOnDJIg+CRN9iBF9gKJEH6AM0ae5mnamz629++FT3ecbtf+o9c+ORR9n+jAJok/CRB9iRB+gKNEHKEP0GXrj3k64dOd2o/Zv/P4/blT0aaJn37kp+jBxok/CRB9iRB+gKNEHKEP0GfqvX/rGsYP7pq0JL+9qot9aXzn2z9nLu5gE0Sdhog8xog9QlOgDlCH6DP2ll0UfThN9qILokzDRhxjRByhK9AHKEH2GnOlDHtGHKog+CRN9iBF9gKJEH6AM0Wfo5Jk+P/NGL3zm+uXG7Etr10afCU+S6EMVRJ+EiT7EiD5AUaIPUIboM3TyTJ+9f+H7LkQfqiH6JEz0IUb0AYoSfYAyRJ8h0Yc8og9VEH0SJvoQI/oARYk+QBmiz5DoQx7RhyqIPgkTfYgRfYCiRB+gDNFnSPQhj+hDFUSfhIk+xIg+QFGiD1CG6DMk+pBH9KEKok/CRB9iRB+gKNEHKEP0GRJ9yCP6UAXRJ2GiDzGiD1CU6AOUIfoMiT7kEX2oguiTMNGHGNEHKEr0AcoQfYZEH/KIPlRB9EmY6EOM6AMUJfoAZYg+Q6IPeUQfqiD6JEz0IUb0AYoSfYAyRJ8h0Yc8og9VEH0SJvoQI/oARYk+QBmiz5DoQx7RhyqIPgkTfYgRfYCiRB+gDNFnSPQhj+hDFUSfhIk+xIg+QFGiD1CG6DMk+pBH9KEKok/CRB9iRB+gKNEHKEP0GRJ9yCP6UAXRJ2GiDzGiD1CU6AOUIfoMiT7kEX2oguiTMNGHGNEHKEr0AcoQfYZEH/KIPlRB9EmY6EOM6AMUJfoAZYg+Q6IPeUQfqiD6JEz0IUb0AYoSfYAyRJ8h0Yc8og9VEH0SJvoQI/oARYk+QBmiz5DoQx7RhyqIPgkTfYgRfYCiRB+gDNFnSPQhj+hDFUSfhIk+xIg+QFGiD1CG6DMk+pBH9KEKok/CRB9iRB+gKNEHKEP0GRJ9yCP6UAXRJ2GiDzGiD1CU6AOUIfoMiT7kEX2oguiTMNGHGNEHKEr0AcoQfYZEH/KIPlRB9EmY6EOM6AMUJfoAZYg+Q6IPeUQfqiD6JEz0IUb0AYoSfYAyRJ8h0Yc8og9VEH0SJvoQI/oARYk+QBmiz5DoQx7RhyqIPgkTfYgRfYCiRB+gDNFnSPQhj+hDFUSfhIk+xIg+QFGiD1CG6DMk+pBH9KEKok/CRB9iRB+gKNEHKEP0GRJ9yCP6UAXRJ2GiDzGiD1CU6AOUIfoMiT7kEX2oguiTMNGHGNEHKEr0AcoQfYZEH/KIPlRB9EmY6EOM6AMUJfoAZYg+Q6IPeUQfqiD6JEz0IUb0AYoSfYAyRJ8h0Yc8og9VEH0SJvoQI/oARYk+QBmiz5DoQx7RhyqIPgkTfYgRfYCiRB+gDNFnSPQhj+hDFUSfhIk+xIg+QFGiD1CG6DMk+pBH9KEKok/CRB9iRB+gKNEHKEP0GRJ9yCP6UAXRJ2GiDzGiD1CU6AOUIfoMiT7kEX2oguiTMNGHGNEHKEr0AcoQfYZEH/KIPlRB9EmY6EOM6AMUJfoAZYg+Q6IPeUQfqiD6JEz0IUb0AYoSfYAyRJ8h0Yc8og9VEH0SJvoQI/oARYk+QBmiz5DoQx7RhyqIPgkTfYgRfYCiRB+gDNFnSPQhj+hDFZKOPgd7u2FrYzWsro5tYyvs7h2MHpE20YcY0QcoSvQByhB9hkQf8og+VCG56HO4vx3Wr/ZCt90KrdYZa3dD7+p62N4/HP3I9Ig+xIg+QFGiD1CG6DMk+pBH9KEKCUWfg7B1fTZ0RlGn/eJsmLuyPDi7Z2NrN+zu9re1Mfh4+cp8mJtpjwJQJ8xe3+r/6PSIPsSIPkBRog9QhugzJPqQR/ShCmlEn8O7YWUuizidMLOwWvjsncFZQVeGoag9txLuJnbSj+hDjOgDFCX6AGWIPkOiD3lEH6qQQPTZD+uvtkPrxfmwfv/xqs3h/fUw/2IrtF9d7/9s6RB9iBF9gKJEH6AM0WdI9CGP6EMVEog+B2FvazNsfTT68HF9tBU2t/aSepmX6EOM6AMUJfoAZYg+Q6IPeUQfqpDchZx5SPQhRvQBihJ9gDJEnyHRhzyiD1VIJPqshd7oAs7l1uv/yHSJPsSIPkBRog9QhugzJPqQR/ShColEn42w0OmEzqmN3qGr3c65L9tC/0dOzsHeVli/Oh9mX2yH3lujGwf2wsbCTGhfGMaoztxSuHX0crXD7bA81xl+Hhc6Ye7Gdih65SLRhxjRByhK9AHKEH2GRB/yiD5UIfGXdw3PAOpe3Rl9XKW1MN+ZDfNXr4X5butY9Nn/3lxodRfDZvauY4f3w+or7dB+bZijdq/PhNZL18LOQXbXaphrd8Lie4O7Hkn0IUb0AYoSfYAyRJ8h0Yc8og9VEH0mbicsnYg+WyvzYfHt3dFHfW/1QquXvfBsP6zMtsLc2sNze9Zf7X8+bxT7fEQfYkQfoCjRByhD9BkSfcgj+lAF0WfiTkef4w7DxuV2mLmeRaDTj9252j32+WTfjO/t7eUu+yY9iz7ZH7LZ+LLok32N5N1nZja+7OAt+/dJ3n1mZie3u7s7WN5907S/cOlrxw7u7370Ye7jbLr2G29eO/Z18Y9Xr+Y+zuxJLvteTvSZqLOjz95bvdB+cTFsDk7uKRZ9tre3c5cFn2zZH7DZ+LLok3e7mdnJZcHHc4aZFV32nJEt775p2p9/8fePHdy/9/5O7uNsuvary68f+7r44vWF3MeZPckdPSefB9EnVzz6HN5ZCt3ObFi+c/RyrkdHn7N4eRcxXt4FFOXlXUAZXt415OVd5PHyLqqQne0j+kxUJPp81P+9drph6UHwybimD+dD9AGKEn2AMkSfIdGHPKIPVUgk+uyGzdXVsHpqC2Gm1QqdV67l3Jdts/8jJy0n+gyCT6d/297ohocG7951aSlsefcuniDRByhK9AHKEH2GRB/yiD5UIZHoMzyjp1V6vf6PnLT8l2yd/r11w1J2Qs/h3bDS6wxvu9AJcze2w/i5QGcRfYgRfYCiRB+gDNFnSPQhj+hDFRI/0+dRq+JMn8kRfYgRfYCiRB+gDNFnSPQhj+hDFRK/ps90E32IEX2AokQfoAzRZ0j0IY/oQxUSiT5bYfnKclh/dyfsHYxuQvQhSvQBihJ9gDJEnyHRhzyiD1VI8po+7YszYe7yYlh+ezPsTHEFEn2IEX2AokQfoAzRZ0j0IY/oQxUSiT4HYW9rI6wuL4a5l7uh3X4YgAZrt8PM3EJYWtkIWx/uF74QctOJPsSIPkBRog9QhugzJPqQR/ShCsle0+dgbzdsbayEpYW5MNttH49AF9qhMzMXFq5uuJAzU0n0AYoSfYAyRJ8h0Yc8og9VmKILOR+Evbu3wurifOhePApAVbxl++SIPsSIPkBRog9QhugzJPqQR/ShColHn4Ow9/5mWL26EOZmxs72uTB6udfqVtgbPTJFog8xog9QlOgDlCH6DIk+5BF9qEJy0edgbytsrCyF+ezaPheOzuhphfbg5VyrYfOua/qA6AMUJfoAZYg+Q6IPeUQfqpBI9NkKy6/Mhs74BZyzd/BaWAqr794N+9NSeU4QfYgRfYCiRB+gDNFnSPQhj+hDFRKJPuNv2d4O3VcWwvLGVpjid2sfEH2IEX2AokQfoAzRZ0j0IY/oQxWSeXnXwd5O2FzNeVlXdzbMT9nLuo6IPsSIPkBRog9QhugzJPqQR/ShColeyPkg7G1thJWr88ffrn1wAefFwVlA96fgNV+iDzGiD1CU6AOUIfoMiT7kEX2oQqLR54SDvbC1sRKWLs+OvV17K7RfXAy3Rg9JkehDjOgDFCX6AGWIPkOiD3lEH6owBdFn+Lbt6ytLYWFuJnQ67dA+OvOn1Qtro0elSPQhRvQBihJ9gDLOI/pkB8qf6j7fqP2RF37t2MH9x//iX4w+G6bZs+/cPPZ18eW3b4zugfOTXPQ53L8ftjZWw/KVueMv7Rotu8bP3JXlsDoFL/ESfYgRfYCiRB+gjPOIPj93/fKxA+Umzpk+ZJzpQxUSiT5bYTk7i2fspVuDXWiHzsxcWLi6Eja27k/dW7eLPsSIPkBRog9QxnlEn88uzx87UG7inOlDxpk+VCGR6DN6y/Z2dqHmhbC0shG2Ppy+d+s6SfQhRvQBihJ9gDKc6ZM/Z/qQOXmmTxN3fff90WdDUyQSfQ7C3t7B6P9zRPQhRvQBihJ9gDImcabPpTu3R/dAs5w806eJu7Hre4KmmYILOU8v0YcY0QcoSvQBypjEmT7dOym//y4pc6YPVUjr5V2l5927mE6iD1CU6AOU4UwfiGu/t5H7bm913r/7jS8f+/vnTJ/mSS/6XOiE2d58mL+cbS7MdDqhE91C2Bj9DCkSfYgRfYCiRB+gDGf6QFr+zuszx/7+OdOneRKJPrth42ovdNtHZ/C0Q+flhbDy7m6Y5iv9iD7EiD5AUaIPUIboA2kRfZovsWv6HIS9rfWw1OuG9tGZP+1u6F1dD9vT9n7tfaIPMaIPUJToA5Qh+kBaRJ/mS/dCzge7YXNlIcx2js7+aQ3O/lne2A7T0n9EH2JEH6Ao0QcoIws+og+kQ/RpvnSjzwOHYf/uZlhZmA2dC6MAlF33Z2ElbN5L+8Vfog8xog9QlOgDlCH6QFpEn+abgugz5nA/bL+9GGYvHp394927mE6iD1CU6AOUIfpAWkSf5pua6HNwb3S2z9HFnrOzfS6vhp3R/SkSfYgRfYCiRB+gDNEH0iL6NF/a0WdwZs9S6F1qj87saYX2pV5Yens6rusj+hAj+gBFiT5AGaIPpEX0ab4Eo89h2N8+8Q5eU3INn5NEH2JEH6Ao0QcoQ/SBtIg+zZdM9Dncv5vzbl3zU3NWTx7RhxjRByhK9AHKEH0gLaJP8yUSfdZC7+isnlY7zLy2HDZ27obd3d3+tsLG6mpYzd1m2B39DCkSfYgRfYCiRB+gDNEH0iL6NF+C0afMvHsX00n0AYoSfYAyRB9Ii+jTfIlEn92wmXsmz6PmTB+mk+gDFCX6AGWIPpAW0af5EryQM0dEH2JEH6Ao0QcoQ/SBtJyMPk3bv/77/9/oM5leyZzps/Xubpiu9+Z6NNGHGNEHKEr0AcoQfSAtok/zpXVNn3Y3zF2ZvrdmjxF9iBF9gKJEH6AM0QfSIvo0XzIv7zq4txlWFmZDpz28SHP70lxYXNkMu1Pcf0QfYkQfoCjRByjjPKLPZ5fnjx3EXbpze3QPcN7+4epS+FT3+UYtCz1Hzxf/5vP/ePSZTK8Er+lzEHbfXQkLL3dCe/AOXe3QnVsMK1P48i/RhxjRByhK9AHKcKYPULX//OJXHjxfONMn9Qs5H+yGzZWFMNsZvUX7lL38S/QhRvQBihJ9gDJEH6Bqos9xaUefMQ9e/nXh6OVfvbCUvWV7wv1H9CFG9AGKEn2AMkQfoGqiz3FTE30eevjyr8HZP61eWB/dkxrRhxjRByhK9AHKEH2Aqok+x01h9BkzePnXWkg1i4g+xIg+QFGiD1CG6ANUTfQ5LtHosx7mX5wNC8sbYXv/cHTb9BF9iBF9gKJEH6AM0QeomuhzXLLRpzd46dbo+j0z6V+/J4/oQ4zoAxQl+gBliD5A1USf49J9edfhftjeWA6LczOhPbp4c7bOywtheWM7TMMJQKIPMaIPUJToA5Qh+gBVE32Om5Jr+mQXb14NS5dnQ6d9FIDaodtbCqvv7vbvTZPoQ4zoAxQl+gBliD5A1USf46bqQs4He1thY3k+dB+En9EudEPv+q2wN3pcKkQfYkQfoCjRByhD9AGqJvocl3z0GYaehTD7Yvth5Lk4E3pX18PW3n7Y314PS68M3769e3U7pPSqL9GHGNEHKEr0AcoQfYCqiT7HJRp9dsPmydBzoRNmF5bDxvZ+TtjZD6tz/ce058PG6JYUiD7EiD5AUaIPUIboA1RN9Dku0eizNnr3rvbgws0r79595IWbd652RR+mhugDFCX6AGWIPkDVRJ/jEo0+O2FjCt+i/STRhxjRByhK9AHKEH2Aqok+x6V9TZ+DnbB+dSHMXR/7F8Pta2HuymrYmYIgJPoQI/oARYk+QBmiD1A10ee4dKPPR2uhd3F0PZ/e2ujGvrd6w9s6vbD20ei2RIk+xIg+QFGiD1CG6ANUTfQ5LtHocxg2LmcXce6Gxe/fP3Xh5oOtpdBttUL7tY2k3q3rJNGHGNEHKEr0AcoQfYCqiT7HJRp9NsJ8uxU6i5ujj0/bXOwkd+Hmk0QfYkQfoCjRB9Lywx/th0t3bp/bWhtrg+Xd97j7X+Y7x6JPdhtAzJ+8+LvHnjM+c/1yo/ZP37k5+kyejESjz/Ddu2Zv7o8+Pm3/5mxotXr9R6ZL9CFG9AGKEn0gLRfe2zh2MNTEOdMHOMv4mT5N3J+f+droM3kyEo0+O2Gp2wrt3lrIzz77Ya3XDq3uUv+R6RJ9iBF9gKJEH0hLO4Ho40wf4Cwnz/Rp2n5S9Clm543u4ILNMwvrYXv/4ZV7Dve3w/rCzOC+7hspJx/RhzjRByhK9IG0ONMHSJ0zfY5LNvqEsBfWXu0M36krZ51X18L9lK/i3Cf6ECP6AEWJPpCWi1vfP3Zw8edmXsi9psTj7unF2cHy7ntSW/9wd/TZAJy28MM7x64LVvd1tm4de17+Cy99ffSZPBkJR5/MYbj/3kpYvDwXZjqd0OnOhrnLi2HlvdPv6JUi0YcY0Qfifmrx5fCp7vON3f/6+szoM3kyRB9Iy8no8wsrC6N7nozzePcugNSNPy+LPhQm+hAj+kDcn+n+/rF/8TZtf7rz1dFn8mSIPpCWky/v+twN0QegSgeHh8eel728q4yDvbDz7npYXV2NbDOkfHKo6EOM6ANx/1XDo89PvPjc6DN5MkQfSIszfQDqZ/x52Zk+BR3euRZmLuRfz+fhvGU700n0gThn+hwn+kBanOkDUC/O9Hksu2H5pSzqdMLslZWcM3yO5kwfppPoA3Hj0edf6a8J/tWv/r8Pfs+iD3AW0QegXkSfx7IWeq1W6Cxujj6eTqIPMaIPxIk+x4k+kBbRB6BeRJ/HshHm263Qvboz+ng6iT7EiD5MSnbtiLy3263z/v1v/pNj/+JtgvHfr+gDnKV9Ivq4pg9A9cafl39S9CniMGxcbofW7ErYG90yjUQfYkQfJuV/X5o79i+xps2ZPqIPpMaZPgD14kyfx3IQ9u6shLmLrdBd3Ag7u7thN3d7/UemS/QhRvRhUp662uzok60Jxn+/3r0LOIt37wKon/HnZe/eVcjwmj7579g1Pu/exXQSfZgUZ/pMhjN9gKKc6QNQL870eSxbYfnyfJh/5Jb7j0yX6EOM6MOknDzT51fXroVLd243ZjPbt0efSb2N/zN2pg9wFmf6ANTP+POyM30oTPQhRvRhUk6e6XP5fc9J58GZPkBRzvQBqBdn+nwih2F/eyOsLi8OzuxZfu/o5rth+/2Ur+YzJPoQI/owKaLPZIg+QFGiD0C9iD6P63A7LM92jl3Dp/fW8K7tq93+x91wLfF3dBd9iBF9mBTRZzJEH6Ao0QegXkSfx7R1JQs+7TB7ZT1s7a6EubHokwWhpW4rtOZWw/7ophSJPsSIPkyK6DMZog9QlOgDUC+iz2PZDIudVmhf3giHg4+H7+b1IPr07WRn+7Tnw8bo4xSJPsSIPkyK6DMZog9QlOgDUC+iz2MZRp651aPr9pyOPvs3Z4O3bGdaiT5MiugzGaIPUJToA1Avos9jGZ7p03n9VuRMn/2wOtcKrc5i/5HpEn2IEX2YFNFnMkQfoCjRB6BeRJ/HNHj5Vqsd5lZ2wsF49DncD5vXZ0O7/3HnStoHH6IPMaIPkyL6TIboAxQl+gDUi+jzuLJ373q5PXjXrtaF0Tt4XeyE9tH/v7QUtoenASVL9CFG9GFSRJ/JEH2AokQfgHoRfT6Rg7CzuhBmu+3BmT1Z7Gl3ZkLv+q1wP/HgkxF9iBF9mBTRZzJEH6Ao0QegXkSfx3IY9j/cDbt7Rxdynk6iDzGiD5Mi+kyG6AMUJfoA1Ivo81iG1/Bp9VJ+b65HE32IEX2YFNFnMkQfoCjRB6BeRJ/HshUWX2yF1kvLYXd0yzQSfYgRfZgU0WcyRB+gKNEHoF5En8e091YvdFrt0Fu7P3rb9ukj+hAj+jApos9kiD5AUaIPQL2IPo9l9PKuR67Xf2S6RB9iRB8mRfSZDNEHKEr0AagX0eexbISFTid0HrmF/iPTJfoQI/owKaLPZIg+QFGiD0C9iD48NtGHGNGHSRF9JkP0AYoSfQDqRfR5LOvevatP9CFG9GFSRJ/JEH2AokQfgHoRfR7LRphvt0JrdiXsj26ZRqIPMaIPk/LU1ePRZ/79O6N7eJLG/xn/xIvPjW59MkQfSMvFre8fe874hRXRB6Bq48/Lf/iFZ8Knus8/sf2ZznPh5e+/PfqVnqxKX96180Y3tFrdsHRnWt+7S/QhTvRhUpzpMxnO9AGKcqYPQL2cPNPnPPbNt26OfrUnq+ILObdDe/AOXf3/zb2IczYXcmY6iT5MiugzGaIPUJToA1Avos9j8ZbtGdGHGNGHSRF9JkP0AYoSfQDqRfThsYk+xIg+TIroMxmiD1CU6AMwXbxle8JEH2JEHyZF9JkM0QcoSvQBmC6JRp+tsHx5Psw/csv9R6ZL9CFG9GFSRJ/JEH2AokQfgOmSaPRxTZ+M6EOM6MOkiD6TIfoARYk+ANMl0ehzEPZ2d8NuZDurvdCegrdzF32IEX2YFNFnMkQfoCjRB2C6TOk1fQ7DxuV2aL20HHZHt6RI9CFG9GFSRJ/JEH2AokQfgOkytRdy3rna9fIuppbow6SIPpMh+gBFiT4A02Vqz/S59XpH9GFqiT5MiugzGaIPUJToAzBdEo0+u2FzdTWs5m4lLF2eCe3sQs5zq2F/9CNSJPoQI/owKaLPZIg+QFGiD8B0STT6FHj3rs5cWLnrQs5MJ9GHSRF9JkP0AYoSfQCmy/Sd6fP2ZtjZ3QsHo0emTPQhRvRhUkSfyRB9gKJEH4DpMrUXcp4Gog8xog+TIvpMhugDFCX6AEyX5KLPwb3NsHJlPiys7oxueWhndSEsXF0Nm/em4Twf0Yc40YdJEX0mQ/QBihJ9AKZLQtHnMGzfmB1eoLm/7tWc6DN4m/bs/naYvbHd/xFpE32IEX2YFNFnMkQfoCjRB2C6JBN99td7w+DTnQ8r7+6EvbyTeQ72ws67K2G+Oww/8xsu5Mx0En2YFNFnMkQfoCjRB2C6JBJ9dsPyS63QenExbBbpOIebYfHF/uNnV7xlO1NJ9GFSRJ/JEH2AokQfgOmSSPRZH7xFe3dpe/Txo20vZS/16vV/ZLpEH2JEHyZF9JkM0QcoSvQBmC6JRJ+1YfTJuY5PzPD6Pr3+j0yX6EOM6MOkiD6TIfoARYk+ANMlkeizHZay6/TMrRZ8udZh2LjcDq3OYtgc3ZIi0YcY0YdJEX0mQ/QBihJ9AKZLMhdy3rrSGVycuffW3uiWuIOtpdBttUJ74dboljSJPsSIPkyK6DMZog9QlOgDMF2SiT7h4/XQu5i9K1crdHtLYfXdnbC7uxeGb+J1GPY/3A27Wxth+fLobdsv9sLaR4M7kyX6ECP6MCmiz2SIPkBRog/AdEkn+mQ+uhUWZ4bh58x1F8L6/bTfrj0j+hAj+jApos9kiD5AUaIPwHRJK/oMHIb97Y2wcnUhzF+eP7aFqythY3u//4jpIPoQI/owKaLPZIg+QFGiD8B0STD6NNFh2L4xFzoXhmcideaWw/ZRmTrcDstz2fWK+vdd6IS5G9uFo5XoQ4zow6Q8dfV49Jl//87oHp6k8X/GP/Hic6NbnwzRB8526c7tRu2Xbi4ee874hRXRByBlCUSfu2F5th1mrhaPIacdhrsrc6Ezu9z/2Spw71qYaXXD0tZB/7dyP6y+0g6dK8NYs3t9JrReuhZ2Bnethrl2Jyy+N7jrkUQfYkQfJsWZPpPhTB+oxt2D/WPPcU2cM30A0pbEmT6Hd4bvxtV5dXUQR0o52Amrg4s7d8PSnYpe+PVWL7S6S2Fn9OHg495a///sh5XZVphbe/j7Wn+1FbpvPHjkmUQfYkQfJkX0mYzxf8aiD0xOCtHHmT4AaUvm5V0HW9fC7ODduzphZmE5bGzdD/uxhnO4H+5n7+S1MDt8SdXF2XAtO8umKh+vhrkLx8/0mbmx279jJyx1W6H31vBhmZ2r3dC9+jD6ZN+M7+3t5S77Jj2LPtkfstn4suiTfY3k3Wf2JPf3X3/p2MHFd9+7lfs4+2QbP9PnT33n93If87jLDt6yf5/k3Wc27du6/8Gx57gm7rPXXs393B53u7u7g+XdZ2Zmk1/2vVw61/TJztpZmAmdo3fp6q99sRM6nbFdbD+4bxiIHuPsoHOwe3M2tI9+zy9dG13Tp1j02d7ezl0WfLJlf8Bm48uiT97tZk96P3X5xWMHF5131nIfZ59s4/+M/4v2V3If87jLgo/nDLP8vfODO8f+/v2xb/1W+OmFlxq11vr3cj+3x132nJEt7z4zM5v8jp6Tz0N1F3I+2A2bq0thYW4mdDrjkacd2p1OmJlbCEurm2G3BrFn4L3F0LnYC2vZ28gf3g+3Xu+G9msb4bBA9DmLl3cR4+VdTIqXd02Ga/pANU6+vOu/++63RvdMLy/vAqiX7Gyf9KJPw2Qh5+jCzQM7S6E7uMaPa/pwPkQfJkX0mQzRB6oh+pwm+gDUi+hTA/vfmwutF+fD+uBMn/2weaUbWi+vhOyqPoN377q0FIaX+/HuXTwZog+T4i3bJ2P8n/F/cuGf575N8+PuO++uh2+8tZJ735Pa2v17o88EmkX0OU30AagX0acW9sKt/oHR4KLS2TV9Li2EjY9Gdx3eDSu9zvDlaRc6Ye5G8bemF32IEX2YFGf6TMb4mT5N3P925eXRZwLNIvqcJvoA1IvokzDRhxjRh0kRfSZj/J9xE/f3rsyOPhNoFtHnNNEHoF5En4SJPsSIPkyK6DMZzvSBaog+p4k+APUi+iRM9CFG9GFSRJ/J+OzyfPjM9cvnsp+9+kr46ddmcu973P3thUvHvi6c6UNTiT6niT4A9SL6JEz0IUb0YVJEn+Y7j3fvWvzh9rGvC2f60FSiz2miD0C9JBJ91kIvu9BxobVD9/Jq2DkY/dCEiT7EiD5MiujTfKIPxIk+p4k+APWSSPTZCAudTugU2cVR/OnMh/WPRz88UaIPMaIPkyL6NJ/oA3Giz2miD0C9TOHLuw7D/bVeaLdaoXMl7YMP0YcY0YdJEX2aT/SBONHnNNEHoF6m9Jo+h2Gt1wqt7lLYHt2SItGHGNGHSRF9mk/0gTjR5zTRB6BepvZCzjtXu6HV6oW10ccpEn2IEX2YFNGn+UQfiBN9ThN9AOpF9Bl9nCLRhxjRh0kRfZpP9IE40ec00QegXqY0+uyEpW4rtF5aDrujW1Ik+hAj+jApok/ziT4QJ/qcJvoA1MuURZ+DsPf+Rlh6uT14B6/Zm3uj29Mk+hAj+jApok/ziT4QJ/qcJvoA1Esi0Wct9LK3YS+xzqtrIe3kI/oQJ/owKaJP84k+ECf6nCb6ANRLItFnIyx0OqHziM3MzYf5haWw+t79cDj6kSkTfYgRfZrpxu4Pw2euX27UfuLF544dEIk+zXMe0efK3R8c+7r4e1dmR/dAs4g+p4k+APUytRdyngaiDzGiTzM9d2vt2MFFEyf6NI8zfSBO9DlN9AGol6TO9Jld3hl9TEb0IUb0aabnb7917OCiiZt//87os6EpJnGmz993pg8NJfqcJvoA1EtS1/TpXhV9xok+xIg+zeRMH6rgTB+IE31OE30A6kX0SZjoQ4zo00wnz/T5qcWXw6U7txu1D378o9FnQ1M40wfiRJ/TRB+AehF9Eib6ECP6NNPJM31+ZfXq6B44P870gTjR57T79++LPgA1klT06bxyLayurpbYZtgd/QwpEn2IEX2aSfShCqIPxIk+p4k+APWSVPRplV6v/yPTJfoQI/o0k+hDFUQfiBN9ThN9AOrFmT6jnyFFog8xok8ziT5UQfSBONHnNNEHoF5c0ydhog8xok8ziT5UQfSBONHnNNEHoF5En4SJPsSIPs0k+lAF0QfiRJ/TRB+AehF9Eib6ECP6NJPoQxVEH4gTfU4TfQDqJZHosxEWOp0wuyz6jBN9iBF9mkn0oQqiD8SJPqeJPgD1kkj0IY/oQ4zo00yiD1UQfSBO9DlN9AGol6TO9OmU3kL/R6ZL9CFG9Gkm0YcqiD4QJ/qcJvoA1EtS1/RpDdYO7QdRpz26LbZe/0emS/QhRvRpJtGHKog+ECf6nCb6ANRLItFnK1x7ufMw5nRmw/zV9bC9fzi6fzqJPsSIPs0k+lAF0QfiRJ/TRB+Aeknqmj6H+9thY3khzHYens3TeXkhrLy7Gw5Gj5kmog8xok8ziT5UQfSBONHnNNEHoF4SvZDzYdjfXg9LvW5oH5390+6G3tX1sLU3PflH9CFG9Gkm0YcqiD4QJ/qcJvoA1Eui0WfMwW7YXF0KvUsPr+/TvtQLS29vh9Rf/SX6ECP6NJPoQxVEH4gTfU4TfQDqJf3oM+bg3mZYWZgNnQujs38uzHv3LqaS6NNMog9VEH0gTvQ5TfQBqJfpiT6H+2H77aUwP3bB5/aLi+HW6O4UiT7EiD7NJPpQBdGHSfoPv/3Pjn1tNG2ij+gDUDfJR5/TZ/d0wuzCSti8l/61fUQfYkSfZhJ9qILowySJPs0n+gDUS5rRJ7uOz8pCmH1x+q7jM070IUb0aSbRhyqIPkyS6NN8og9AvSQUffLesWt6zurJI/oQI/o00/O33zp2cPHFN0Ufzt95RJ8rd39w7Gv571+ZHd3DtDsZfT7Vfb5R+5k3eqPPZHqJPgD1kkj02Qjz7VHo6a/z8kJYeXc3DFPPQdjb3Q27udsbPSZNog8xok8zOdOHKjjTh0kajz7/ztd/Y3QrTSL6ANRLItFnLfSOzu4ptV7/R6ZL9CFG9Gkm0YcqiD5MkujTfKIPQL0kEn22wvLl+TBfesv9H5ku0YcY0aeZRB+qIPowSaJP84k+APWS5oWcGRB9iBF9mkn0oQqiD5Mk+jSf6ANQL6JPwkQfYkSfZhJ9qILowySJPs0n+gDUi+iTMNGHGNGnmUQfqiD6MEmiT/OJPgD1IvokTPQhRvRpJtGHKog+TJLo03yiD0C9iD4JE32IEX2aSfShCqIPkyT6NJ/oA1Avok/CRB9iRJ9mEn2ogujDJIk+zSf6ANRLotFnPfRardDqrY0+nk6iDzGiTzOJPlRB9GGSRJ/mE30A6iXR6LMR5tut0JpdCfujW6aR6EOM6NNMog9VEH2YJNGn+UQfgHpJ9uVdO290Q6vVDUt3Dke3TB/RhxjRp5lEH6og+jBJok/ziT4A9ZLsmT4LnXZoZy/xavX/t9MJndwt9B+ZLtGHGNGnmUQfqiD6MEmiT/OJPgD1kmj0WRte0+eR6/UfmS7RhxjRp5mev/3WsQPlL74p+nD+ziP6XLn7g2Nfy3/tlVa4dOd2o7a9vzf6bHiSRJ/mE30A6iXZl3ch+hAn+jSTM32owiTO9GnivvL91dFnw5Mk+jSf6ANQL9MRfQ72wu7ubtg7GH08JUQfYkSfZnKmD1WYxJk+Tdzvff/N0WfDkyT6NJ/oA1AvCUefw3D/+0thrvPw5Vy9t4b37K/3QmfmWthO/BrPog8xok8zOdOHKjjTJ3/O9Dkfok/ziT4A9ZJs9MnCzuBCzu1umLs8Gzpj0edgayl0+x93r+4Mb0iU6EOM6NNMv38i+jjTh0k4j+jz3scfhc9cv9yo/eWXv3ns79/vOtPnXIg+zSf6ANRLotFnNyy/1Aqt7tLobJ7hhZ2Pok9mc7EzvH/0cYpEH2JEn2Zypg9VOI/o00RfWrt27O+fM33Oh+jTfKIPQL0kGn2GkWfmxu6xj8ejz/7NWe/exdQSfZpJ9KEKos+Q6DMZok/ziT4A9ZJo9FkfRJ7uG0cv34qc6dPq9R+ZLtGHGNGnmUQfqiD6DIk+kyH6NJ/oA1AviUaf/bA61wqti72w9lH28fHoc3h/Ncy1+/fPrfYfmS7RhxjRp5lEH6og+gyJPpMh+jSf6ANQL8leyDnsXBtcrLl1oRvmrvTCTP//z7y+GpYXZkPnQv/2Vjcs3Un77btEH2JEn2YSfaiC6DMk+kyG6NN8og9AvaQbffoO766F+W4WeE6sMxuWbu+NHpUu0YcY0aeZRB+qIPoMiT6TIfo0n+gDUC9JR5+hw7D/4U7YfHs1rK5uhK3dvXAwuid1og8xok8ziT5UQfQZamL0+Z8vf+fY77lpE32aSfQBqJcpiD7TS/QhRvRppudvv3XsgOiLb4o+nD/RZ+hXT0Sfz1y/HC7duV3r/cWXvn7s99y0iT7NJPoA1EvaL++6fytcuzwbuhfHXtp1sRtmF1bC1v20r+eTEX2IEX2ayZk+VEH0GTp5po+d/0SfZhJ9AOol2ehzeOdamBlcsLm/djt0Op3B2tm7dmW3XZgJ11zImSkl+jSTM32ogugzdPJMnybuT3V+L3yq+3xj9t9/9w9G//RpEtEHoF4SjT67YeXlLO60w9zKzolr+ByE3bfnQycLPy+v9B+ZLtGHGNGnmZzpQxVEn6EUzvRZ/zDl73qoC9EHoF4SjT5roddqhfbljZB/Ls9huPV6J7Ravf4j0yX6ECP6NNPvn4g+zvRhEkSfodfevzO4jk+Td/dgf/TZwPkRfQDqJdHosz6IPt2rO6OPTztYnRtEn/XRxykSfYgRfZrJmT5UQfQByhB9AOol0eizH1bnzj7TZ+NyO7TmVvuPTJfoQ4zo00yiD1UQfYAyRB+Aekn2Qs4H7y6G7oXsmj5bYXd399h2Vnuh3eqEhXfunrhv78T1f5pN9CFG9Gkm0YcqiD5AGaIPQL0kfU2fB2/TXnhpXeNH9CFG9Gkm0YcqiD5AGaIPQL0kGn12w+bqalgtvc2k3s1L9CFG9Gkm0YcqiD5AGaIPQL0k+/IuRB/iRJ9mEn2ogugDlCH6ANSL6JMw0YcY0aeZRB+qIPoAZYg+APUi+iRM9CFG9Gkm0YcqiD5AGaIPQL2IPgkTfYgRfZpJ9KEKog9QhugDUC+iT8JEH2JEn2YSfaiC6AOUIfoA1Mt0RJ+DvbC7uxv2DkYfTwnRhxjRp5lEH6og+gBliD4A9ZJw9DkM97+/FOY6rdBqDdd7a3jP/novdGauhe3D4cepEn2IEX2aSfShCqIPUIboA1AvyUafLOy0s9jT7oa5y7OhMxZ9DraWQrf/cffqzvCGRIk+xIg+zST6UAXRByhD9AGol0Sjz25YfqkVWt2l0dk8a6E3Fn0ym4ud4f2jj1Mk+hAj+jST6EMVRB+gDNEHoF4SjT7DyDNzY/fYx+PRZ//mbGi1ev170iX6ECP6NJPoQxVEH6AM0QegXhKNPuuDyNN94+jlW5EzfVq9/iPTJfoQI/o0k+hDFUQfoAzRB6BeEo0++2F1rhVaF3th7aPs4+PR5/D+aphr9++fW+0/Ml2iDzGiTzOJPlRB9AHKEH0A6iXZCzmHnWuDizW3LnTD3JVemOn//5nXV8PywmzoXOjf3uqGpTtpv32X6EOM6NNMog9VEH2AMkQfgHpJN/r0Hd5dC/PdLPCcWGc2LN3eGz0qXaIPMaJPM4k+VEH0AcoQfQDqJenoM3QY9j/cCZtvr4bV1Y2wtbsXDkb3pE70IUb0aSbRhyqIPkAZog9AvSQffQ7374ede2Nn9Xy0G3b2piP7iD7EiD7NJPpQBdEHKEP0AaiXhKPPXthY6A5fztUbe2P2t3qD22au3Oo/Im2iDzGiTzOJPlRB9AHKEH0A6iXZ6LN7Y2YQdzqzi2Hl3d3RrX33NsPyq9nbtbfC7M20s4/oQ4zo00yiD1UQfYAyRB+Aekk0+uyEpewCzrMrkbN59sLKbP/+7lL/kekSfYgRfZpJ9KEKog9QhugDUC+JRp+10BucybM/+vi0/ZuzodXq9R+ZLtGHGNGnmUQfqiD6AGWIPgD1kmj02Qjz7VboLm2PPj5te6kbWu35/iPTJfoQI/o0k+hDFUQfoAzRB6BeEo0+h2Gt1wqt9mxYuXs4uu2hw7srYbY9vMDz6XvTIfoQI/o0k+hDFUQfoAzRB6Bekr2Qc/hoLfQutoYXc355Lsxfnh9s7uXhRZxbF+fC6r3RYxMl+hAj+jST6EMVRB+gDNEHoF7SjT59h/dvhaW5UeQZW2duKdy6n/I5PkOiDzGiTzOJPlRB9AHKEH0A6iXp6PPQQdjb3Q27H+4n/XKuk0QfYkSfZhJ9qILoA5Qh+gDUy5REn+kk+hAj+jST6EMVRB+gDNEHoF4SiT6H4e7aYlhcuzs6k2c3bK6uhtVHbrP/yHSJPsSIPs0k+lAF0QcoQ/QBqJdEos966A2u19MLa4OP10YfP2pHj0+T6EOM6NNMog9VEH2AMkQfgHpJ5kyf+++th9XbzvQZJ/oQI/o0k+hDFUQfoAzRB6BeEr2mz2HY/3A37O4djD6eTqIPMaJPM4k+VEH0AcoQfQDqJdHoM3p5Vy/lF289muhDjOjTTKIPVRB9gDJEH4B6STT6bIXFF1uh9dJy0i/fehTRhxjRp5lEH6og+gBliD4A9ZJo9Alh761e6LTaobd2f3Sdn+kj+hAj+jST6EMVRB+gDNEHoF7SfnnXI+fdu5hOok8ziT5UQfQByhB9AOol0eizERY6ndB55Bb6j0yX6EOM6NNMog9VEH2AMkQfgHpJ9uVdiD7EiT7NJPpQBdEHKEP0AaiX5KLPwb3NsL66GlazbWyH/Wm9oE+f6EOM6NNMog9VEH2AMkQfgHpJKPrshVtXZk5ft+fibFi+M53lR/QhRvRpJtGHKog+QBmiD0C9JBN99t/qhXYWeV6cC0srwzN9Vq7Mhs7gtsUwjelD9CFG9Gkm0YcqiD5AGaIPQL0kEn12w/JLw7izeeKknr2bs6HVaof5lK/YHCH6ECP6NJPoQxVEH6AM0QegXhKJPuuDt2jvLm2PPh7z8UqY7d83c2N3dMP0EH2IEX2aSfShCqIPUIboA1AviUSftWH0uboz+njcWfelTfQhRvRpJtGHKog+QBmiD0C9iD4JE32IEX2aSfShCqIPUIboA1Avok/N7K3NhXarG5aOfruH22F5rjN8J7ILnTB3YzsUfS8y0YcY0aeZRB+qIPoAZYg+APWSVPRpX5oL85fnT2z4Dl759y3X6129DjfCfKcVWmPRZ/f6TGi9dC3sHPTvvr8a5tqdsPje8L5HEX2IEX2aSfShCqIPUIboA1AvSUWfwdkwpdbr/8i6OAybi93QfWOp/7kcRZ/9sDLbCnNrD8/tWX+11X9MsbOWRB9iRJ9mEn2ogugDlCH6ANRLItHnIOzt7obd0tvr/8ia2FkK3cFbzmcB6yj67ISlbiv03ho8YmDnavfYS9Wyb8b39vZyl32TnkWf7A/ZbHxZ9Mm+RvLus/rud95eORZ9vnDj9dzHmT3JZQdv2b9P8u4zMzu5o++z8+4zM7PJL/teLoHo03S7YfmlTpjfyM7oKR99tre3c5cFn2zZH7DZ+LLok3e71Xu/dfPqsejzi1dfzX2c2ZNcFnw8Z5hZ0WXPGdny7jMzs8nv6Dn5PIg+Be3dnA3tV9bC3uCjctHnLF7eRYyXdzWTl3dRBS/vAsrw8i6AesnO9hF9KrUTrl3Ku95QFntc04fzIfo0k+hDFUQfoAzRB6BeRJ/aGT/TZ/TuXZeWwpZ37+IJEn2aSfShCqIPUIboA1Avok/tHI8+4fBuWOl1hmf/XOiEuRvb4eF5P2cTfYgRfZpJ9KEKog9QhugDUC+iT8JEH2JEn2YSfaiC6AOUIfoA1IvokzDRhxjRp5lEH6og+gBliD4A9SL6JEz0IUb0aSbRhyqIPkAZog9AvYg+CRN9iBF9mkn0oQqiD1CG6ANQL6JPwkQfYkSfZhJ9qILoA5Qh+gDUi+iTMNGHGNGnmUQfqiD6AGWIPgD1IvokTPQhRvRpJtGHKog+QBmiD0C9iD4JE32IEX2aSfShCqIPUIboA1Avok/CRB9iRJ9mEn2ogugDlCH6ANSL6JMw0YcY0aeZRB+qIPoAZYg+APUi+iRM9CFG9Gkm0YcqiD5AGaIPQL2IPgkTfYgRfZpJ9KEKog9QhugDUC+iT8JEH2JEn2YSfaiC6AOUIfoA1IvokzDRhxjRp5lEH6og+gBliD4A9SL6JEz0IUb0aSbRhyqIPkAZog9AvYg+CRN9iBF9mkn0oQqiD1CG6ANQL6JPwkQfYkSfZhJ9qILoA5Qh+gDUi+iTMNGHGNGnmUQfqiD6AGWIPgD1IvokTPQhRvRpJtGHKog+QBmiD0C9iD4JE32IEX2aSfShCqIPUIboA1Avok/CRB9iRJ9mEn2ogugDlCH6ANSL6JMw0YcY0aeZRB+qIPoAZYg+APUi+iRM9CFG9Gkm0YcqiD5AGaIPQL2IPgkTfYgRfZpJ9KEKog9QhugDUC+iT8JEH2JEn2YSfaiC6AOUkQUf0QegPkSfhIk+xIg+zST6UAXRByhD9AGoF9EnYaIPMaJPM4k+VEH0AcoQfQDqRfRJmOhDjOjTTKIPVRB9gDJEH4B6EX0SJvoQI/o0k+hDFUQfoAzRB6BeRJ+EiT7EiD7NJPpQBdEHKEP0AagX0Sdhog8xok8ziT5UQfQByhB9AOpF9EmY6EOM6NNMog9VEH2AMkQfgHoRfRIm+hAj+jST6EMVRB+gDNEHoF5En4SJPsSIPs0k+lAF0QcoQ/QBqBfRJ2GiDzGiTzOJPlRB9AHKEH0A6kX0SZjoQ4zo00yiD1UQfYAyRB+AehF9Eib6ECP6NJPoQxVEH6AM0QegXkSfhIk+xIg+zST6UAXRByhD9AGoF9EnYaIPMaJPM4k+VEH0AcoQfQDqRfRJmOhDjOjTTKIPVRB9gDJEH4B6EX0SJvoQI/o0k+hDFUQfoAzRB6BeRJ+EiT7EiD7NJPpQBdEHKEP0AagX0Sdhog8xok8ziT5UQfQByhB9AOpF9EmY6EOM6NNMog9VEH2AMkQfgHoRfRIm+hAj+jST6EMVRB+gDNEHoF5En4SJPsSIPs0k+lAF0QcoQ/QBqBfRJ2GiDzGiTzOJPlRB9AHKEH0A6kX0SZjoQ4zo00yiD1UQfYAyRB+AehF9Eib6ECP6NJPoQxVEH6AM0QegXkSfhIk+xIg+zST6UAXRByhD9AGoF9EnYaIPMaJPM4k+VEH0AcoQfQDqRfRJmOhDjOjTTKIPVRB9gDJEH4B6EX0SJvoQI/o0k+hDFUQfoAzRB6BeRJ+EiT7EiD7NJPpQBdEHKEP0AagX0Sdhog8xok8ziT5UQfQByhB9AOpF9EmY6EOM6NNMog9VEH2AMkQfgHoRfRIm+hAj+jST6EMVRB+gDNEHoF5En4SJPsSIPs0k+lAF0QcoQ/QBqBfRJ2GiDzGiTzOJPlRB9AHKEH0A6kX0SZjoQ4zo00yiD1UQfYAyRB+AehF9Eib6ECP6NJPoQxVEH6AM0QegXkSfhIk+xIg+zST6UAXRByhD9AGoF9EnYaIPMaJPM4k+VEH0AcoQfQDqRfRJmOhDjOjTTKIPVRB9gDJEH4B6EX0SJvoQI/o0k+hDFUQfoAzRB6BeRJ+EiT7EiD79vx8//lH4zPXLjdr/8ErrWPT54puiD+dP9AHKEH0A6kX0SZjoQ4zoE8LtvQ+PBZQmzpk+TILoA5Qh+gDUi+iTMNGHGNEnhM2Pmx99nOnDJIg+QBmiD0C9iD4JE32IEX2c6QNFiT5AGaIPQL2IPgkTfYgRfU6f6fPnZ74WLt253ahl4QrOm+gDlCH6ANSL6JMw0YcY0ef0mT7/Y689ugcYJ/oAZYg+APUi+iRM9CFG9BF9oCjRByhD9AGoF9EnYaIPMaKP6ANFiT5AGaIPQL2IPgkTfYgRfUQfKEr0AcoQfQDqRfRJWBZ9/uZ3L4RPdZ8/t/3628ujX40mEX1OX8j5b7x6cXQPME70AcoQfQDqRfRJWBZ9/nT7K8cObJ/0fuaN3uhXo0lEH2f6QFGiD1CG6ANQL6JPwkQfYkQfZ/pAUaIPUIboA1Avok/CRB9iRB9n+kBRog9QhugDUC+iT8LO40LOsz/YPHagLPo0k+gj+kBRog9QhugDUC+iT8JEH2JEH9EHihJ9gDJEH4B6EX0SJvoQI/qIPlCU6AOUIfoA1IvokzDRhxjRR/SBokQfoAzRB6BeRJ+EiT7EiD6iDxQl+gBliD4A9SL6JEz0IUb0EX2gKNEHKEP0AagX0Sdhog8xoo/oA0WJPkAZog9AvYg+CRN9iBF9RB8oSvQByhB9AOpF9EmY6EOM6CP6QFGiD1CG6ANQL6JPwkQfYkQf0QeKEn2AMkQfgHoRfRIm+hAj+og+UJToA5Qh+gDUi+iTsElEnybum++ujz6b6SX6iD5QlOgDlCH6ANSL6JMw0Sd/oo/ok9n8+Hj0+RuvXhzdA4wTfYAyRB+AehF9Eib65E/0EX0yzvSBYkQfoAzRB6BeRJ+EnUf0eePeTvhU9/lG7Y/+wW8dO7gXfUSfjDN9oBjRByhD9AGoF9EnYecRfZrol24uHju4F31En4wzfaAY0QcoQ/QBqBfRJ2Giz5Doc5roI/pAUaIPUIboA1Avok/CRJ8h0ec00Uf0gaJEH6AM0QegXkSfhIk+Q6LPaaKP6ANFiT5AGaIPQL2IPgkTfYZEn9NEH9EHihJ9gDJEH4B6EX0SJvoMiT6niT6iDxQl+gBliD4A9SL6JEz0GRJ9ThN9RB8oSvQByhB9AOpF9EmY6DMk+pwm+og+UJToA5Qh+gDUi+iTMNFnSPQ5TfQRfaAo0QcoQ/QBqBfRJ2Giz5Doc5roI/pAUaIPUIboA1Avok/CRJ8h0ec00Uf0gaJEH6AM0QegXkSfhIk+Q6LPaaKP6ANFiT5AGaIPQL2IPgkTfYZORp8m7gf7H48+myfjPKLPv/eN38z9vTdlog/kE32AMkQfgHoRfRIm+gyJPqedR/T597/5T3J/703Z33j14ugzAcaJPkAZog9AvYg+CRN9hkSf05zpc3rO9IF8og9QhugDUC+iT8JEn6GvfH81fKr7fKP2b33t148Fiaad6fOvPfel3M+rzvv5G6+NPhNgnOgDlCH6ANSL6JMw0ae5/urctxsXfcbP9Pmjf/Bbo1uBphN9gDJEH4B6EX0SJvo0l+gD1IXoA5Qh+gDUi+iTMNGnuUQfoC5EH6AM0QegXkSfhIk+zXUy+nzt9tvh0p3bT2zfWLsROpsbufc97v7tsesQ/Qd/8OzoMwGaTvQByhB9AOpF9EmY6NNcJ6NP0+ZMH0iH6AOUIfoA1IvokzDRp7maHn2c6QPpEH2AMkQfgHoRfRIm+jSXM32AuhB9gDJEH4B6EX3q7nA7LM91QqvVCq0LnTB3Yzscju56FNGnuX73+2+Gz1y/fG576rWZ8H++0cu970nsH60ujT4ToOlEH6AM0QegXkSfmtu9PhNaL10LOwchHN5fDXPtTlh8b3TnI4g+xJzHu3cBaRJ9gDJEH4B6EX1qbT+szLbC3NrDc3vWX22F7hs7o4/OJvoQI/oARYk+QBmiD0C9iD61thOWuq3Qe2v0Yd/O1W7oXn0YfbJvxvf29nKXfZOeRZ8s/piN7wc/+EG4d+9e7n1mZuPLvknInjPy7jMzO7nsPyxly7vPzMwmv+x7uex5+TyIPp9Yseizvb2duzt37gyWhR+z8b333nu5t5uZ5c1zhpkVXfZ84TnDzKxey/rAeRB9PrFHRx8o61/+y385+Gbs4OBgdAtA3Mcffzz4DwgARWRnEmcDoB6yVwGJPrX1ya7pA3lEH6AM0QcoQ/QBqBfRp+YG7951aSlsPca7d0Ee0QcoQ/QByhB9AOpF9Km7w7thpdcJrVYrtC50wtyN7fDwvB8oT/QByhB9gDJEH4B6EX1gyog+QBmiD1CG6ANQL6IPTBnRByhD9AHKEH0A6kX0gSmTRZ/3339f9AEKyaJP9pwBUIToA1AvWfQ5r+/lRB8AAACABIk+AAAAAAkSfQAAAAASJPoAAAAAJEj0AQAAAEiQ6AMAAACQINEHAAAAIEGiDwAAAECCRB8AAACABIk+AAAAAAkSfQAAAAASJPoAAAAAJEj0AQAAAEiQ6APn7PDOcpjrtEKr1V+7E+ZubIfD0X17t5fG7uuG+bW7D+4bd9bPEQ63w/JcZ3hfqx06c8thO+8nARph752F0G2P/r5fnAkL7+yN7jkMd9fmH9zXvrQQ1u/n/2WP/xxn3wc0zOF+uL+1EZavzIWZ/t/npZ3R7QM74dql0d/1B+uFtdG9D+2FjYVuaI8e055ZCBsfje468z5gko4fNzzeMcWZxw2OKZIl+sC52gqLL7ZCd2krHPQ/OthaCt1WJyy+1/9gdyXMtrph4fv3+0/Kh2F/c7F/30y4dm/wA8ec8XNk917pPzlfWgpbwzvDUv8bvM6VreGdQLN8vBrm+t9o9daGzwv313r9g625sPpx/773FkOn/5yxlP1lP7wfbi12Q6u71D+sO+Gsn+Os+4DG2bk6E9ozc2FxeSHMZM8Px54QtsNSt//9wubow4j9782F1sVeWMsicv+5Za3XDq251bD/iPuACbq3PPg7/vC4ITseaIeF2/37Ch9TnH3c4JgiXaIPnKed7Al5Lqw9qOSHYe2VVui+0f+u7L3lMH9lPeyO7sn+i9xStxV6b/X/7+DJe/REftbPMfoxcw/vDIdr/W/QLl07fSAI1N9bvUHI2R59ODxo6z8vrPf/tr/RDa1X1vrPACOHa2Gu/03etff7///2Qmi3ZsNK9oRyxs9x5n1Ag62F3qnoM7xt8Bxxwq2Fdmi9vDL4HmStl/2HpYfPCuFO9n1HL2RPC2fdB0zQOwuhM7s89v392HFD0WOKM48bHFOkTPSB87R+8gBr9A3U1ZNPnwdhd2MhdC/2v5Ea/Bf3vbD19q1wN3vePfPnWB9+k3dnePvA6KDOEzQ0z6mwM/omLPvGbedq/L5weDfcenur/8zxiJ/jjPuAJsuJPrvZmQHt0Dl6yUdnLizdHr6c8/DurbC+NXjGGLwEbPxAb/gfm7KXgZ11H1Cpj1bC7IWZsHzqbJ4zjinOPG5wTJEy0QfOU86T5cnoMziQG7x2thPm37k/unXMmT9Hzjd5nqChsQbPB73xw6mxKHPs5V37YXtlbnCdjZPB5qyf48yfH2iwnO8HPt4MywtLYf3e8Dljc6n/9789HzbGGk7uc8BY9InfB1TmcHvw0qvu1bFrfPY98pjizOMGxxQpE33gPBU+0+fotbkPr9XzgDN9YGqcfSbOYdi+MRc6F4YXWOwuLIS59olv0Pqc6QPTKOeA7ZSNMN9uh/mN0YcDzvSBRskutvxyJ3ReXRuc3XvaGccUzvSZWqIPnKf3r/WfdMevx7MfVmZbkWv6HITV7Fo9J4PQWT9Hzjdk+zdnvf4WmupU5N0Mi51W/jV3sjN/sv9qP/rwgbN+jjI/P9Agp6PP7tuLYf7G+EVY86JP/2nh1f73FOPX7dnMziocXrfnrPuACRtdTL3dOxF8ih5TnHnc4JgiZaIPnKu8d94afVM2eqnG4uBK+/373l8Os/1vxoYXWht//e0ZP0d2b86V9k8/yQONkPfuWu1eWDv27loHYffd5cFbs87cGH2LN3ZNnzN/jkI/P9A8OWf6ZBd4b8+G5fcH3yCEnRuz/Y+HL+96eE2f/oFdzjt0ZQeVsXfvOroPmKS9/OCTKXxMcfZxg2OKdIk+cM4O7/QPzl5sD19j2+6E3s27gyfk/j3h/vpCmLmYvVQju68b5tdG9x270v5ZP0dfdprnXGdwbY/sJR+d3sqDJ3agefbeGXteuDgbFkcXXh0YvLSiFdrd2bBw9HyRGX/3rr6zfo4zf36gofJe3nUY7q7Nh2579Pd97ELO4+/elR0UbizMhPbgpaP955eXF8OtjwZ39J11HzAxo3//D/4uj2/w8qvixxRnHjc4pkiW6AMAAACQINEHAAAAIEGiDwAAAECCRB8AAACABIk+AAAAAAkSfQAAAAASJPoAAAAAJEj0AQAAAEiQ6AMAAACQINEHAAAAIEGiDwAAAECCRB8AAACABIk+AAAAAAkSfQAAAAASJPoAAAAAJEj0AQAAAEiQ6AMAAACQINEHAAAAIEGiDwAAAECCRJ+K3b5928zMzMzMzMymfOdB9KlY9gfbbrdz953vfCdcunTJzMzMzMzMzBJY3rF/tm63O6oET5boU7Gj6NNqtU7t+vXrYXd318zMzMzMpnzffutm+KUrrzR2v3b99dzPy2zalnfsn030SZToY2ZmZmZmj9rTly+FP/bcrzV2P9n6Su7nZTZtyzv2zyb6JEr0MTMzMzOzR+1nGh59/mLrd3M/L7NpW96xfzbRJ1Gij5mZmZnZZDd/653w11/8WqP2E9/8p7kxxc5vv/D6d3O/fsw+yfKO/bOJPokSfczMzMzMJrsX19/MPchv0v75ytXQ7X8edd6f/Po/yf29N2Wij53H8o79s4k+iRJ9zMzMzMwmuxSiz9LmrdzPrU77Uw0/O0n0sfNY3rF/NtEnUaKPmZmZmdlkJ/pMZn/r5W/nvlStrvvL7a8e+2cs+th5LO/YP5vokyjRx8zMzMxssuuciD7/4Eov93E2XXtp461jXxeij53H8o79s4k+iRJ9zMzMzKzpe7l/sJx3TZe67levvXbs4P6XRR/rT/SxSSzv2D+b6JMo0cfMzMzMmr6mX7DXmT6W7WT0aeJeu72R+7lZfZZ37J9N9EmU6GNmZmZmTd+f/Ppv5R6ANmXO9LFsKUSfv3LxudzrFdV1f/e77dw/i5SXd+yfTfRJlOhjZmZmZuO79t7t3Jck1Xl/4oXfzD0AbcpEH8uWQvRp2n7im/809zmlzruxtZn79VN0ecf+2USfRIk+ZlaHZae1/9KVVxqzvzPbyv3GoUl76wdbuX8WZmY/3Xsx93mjKcvepjvvubvOu/TOm7l/FjZde/3d7+eejVLn/ZcNf1v8Ju7nF2Zzv36KLu/YP5vokyjRx8zqsLx/odn5bm1b9DGz/D3V8Ojzly78Xu7nZWZPfp+en8n9e2jnN9GHUkQfM6vD8v6FZuc7Z/qYWWxNP9Pnv2l/NffzMjPL9me+9c9znzumZXnH/tlEn0SJPmZWh+X9C6lJ+7Pf/p3cU57rtD/1jWeP/Z5FHzOL7WT0+dn5S7kvSarrfmN5MffzMjPL9qvXXst97qjrnvTZl3nH/tlEn0QdRZ8333wz7O3tPdjly5dFHzOb2Mb/RfSX21/NvWhdnfdmA14qlb07xfg/5//rtZdzv7Go655duZL7eZnVfRfXV4/93Wvirr/3bu7nZmZm57/erfXc5+bHXRZ43n///WPH/6JPwo6izxtvvHFsoo9Zc/fc6vXcg+Y6b/xfRNlZKXmfl32ynYw+Tdtf7byQ+3mZ1X2ij5mZfZJdfe/WqTO4P8mywHPy+F/0SZjoY5be/nbD31kq+5dR3udln2yij1k1E33MzKxOE32mjJd3maU30cfyJvpYKvvjL/xm7tdIU/apP/jtY//FtQlrwktYzcys2LLA4+VdU8SFnM3Sm+hjeVvavJV7PaI6b/zr4j/72m+eOhCt+35/1b9Hz2NNjz7/6OqruZ+XmZnZJJZ37J9N9EmU6GOW3k5Gn2+8uZJ7QF3XvXZ7I/fzsunb+NexWSoTfczMrMrlHftnE30SJfqYpbeT0WfjBz/IfZxZ3Tf+dWyWtz/xQvPOAPvd713L/Xo3MzObxPKO/bOJPokSfczSm+hjqew/fv7Xj30tm53cX7n4XO7XjpmZmeUv79g/m+iTKNHHLL2JPmbVbPb7b+ee2WHnt5/uvZj7Z2FmZmb5yzv2zyb6JEr0MUtvoo+ZmZmZmeUt79g/m+iTKNHHLL2JPmZmZmZmlre8Y/9sok+iRB+z9Cb6mJmZmZlZ3vKO/bOJPokSfczSm+hjZmZmZmZ5yzv2zyb6JEr0MUtvoo+ZmZmZmeUt79g/m+iTqLOiz2/NdsMvXXnliewrN9/I/YIzq/u++r1rxwJKEyf6mJmZmZlZtrxj/2yiT6LOij4/9fXfzT2AfJz92W//Tm4MqvNeu72R+5fEpmuij5mZmZmZpbK8Y/9sok+iJhV9mrj/e2E2dNffbNTy/lLXbXm/7zrvFxfncr8+mjTRx8zMzMzMsuUd+2cTfRIl+qS1v9Z5Ifz1F79W472Q+/tu0v5c63dyPq967933d3Kf8M3MzMzMbLqWd+yfTfRJ1FnR5zuvXc4986HILrz9vdwDZrOm78vLi7lPnmZmZmZmZnVf3rF/NtEnUWdFn0/67l15MajO+9zrs7kH+WbjE33MzMzMzKypyzv2zyb6JOoo+uTtO9/5Trh06dLU7Cudi+Gzra83an/9G78dfvLrzzZ2f63/+8/7vOq83+60c79+zMzMzMzM6r68Y/9sok+isuhjZmZmZmZmZtO98yD6AAAAACRI9AEAAABIkOgDAAAAkCDRBwAAACBBog8AAABAgkQfAAAAgASJPgAAAAAJEn0AAAAAEiT6AAAAACRI9AEAAABIkOgDAAAAkCDRBwAAACBBog8AAABAgkQfAAAAgASJPgAAAAAJEn0a5PDwMBwcHIT9/f2wt7cXPvroo/Dhhx+e27KfP/t1sl8v+3WzXx8AAACaYtqPo0Wfmsu+QH70ox+d+xdm0WW/j+z3IwABAABQR46jHxJ9air7YsjKYN4XTF2W/f7EHwAAAOrAcfRpok8NZQUw74ujrst+vwAAAFAVx9H5RJ8ayWpf9tq/vC+Iui/7fTvrBwAAgElyHH020acmfvzjH+d+ETRt2ecBAAAA581x9KOJPjWQyhfq0YQfAAAAzpPj6GJEn4ql9oV6NOEHAACA8+A4ujjRp0LZa/fy/qBTmWv8AAAA8CQ5ji5H9KlQUy82VXTZ5wcAAABPiuPockSfijTt7eQed97OHQAAgCfBcXR5ok8FUj8d7eS8zAsAAIBPwnH04xF9KrC/v5/7h5rqss8XAAAAHpfj6Mcj+kzYtNXJoznbBwAAgMfhOPrxiT4TNi2vQTw51/YBAADgcTiOfnyiz4R99NFHuX+YqS/7vAEAAKAsx9GPT/SZoNKnpH2wFa59+8vh8z/3VHjqqafC0z//K+HZi9fC1geP+bi8TeLXGM1LvAAAACij7HH0zlovvPDlz4dP949bs2PXT//il8MLr74T7p143NYb3wnPfvGz4enB454On/3l7HFrYafIMe7mtdB68Gv0f+wXnw3fub71+I87Y5/0OFr0maCDg4PcP8TcfXA7zP7604Mv0pN7+tnXwk7Zx+VtEr/G2LLPHwAAAIoqcxy99eqXH8Sek/v8t26Ows+9cPPbXxjFnpzHfe3ocZHdng3P/Gzej306PDu/U/5xj9gnPY4WfSaozNXG773x1dEX4efDC2/0vyA+uBduL3w1fG5w2+dCa7Xc4/I2iV9jfN7FCwAAgDIKH0ffuxa+OoosT//6bHjnXnbbO2MnMDwbXtvp37bzWnh28PFT4fPPXQm3B4+7Ha489/nR454Jva3Rz3lq98K150Y/3y++EK5t92/r/9jXfu9zw9s+1wprgzOFij7u0fukx9GizwTt7e3l/iHm7ebXRl8gX5oNtx/c/k649P/0b+vf/rkLa6Ue9+E7l8KXfq7/xf/LrXAz+6Iu8WML/xqPWPb5AwAAQFGFj6NvvDA8bn3qC+HSO2O3Xz+6/Zkwu9n/ePudcO2Na4O9k8WYUz/+V8Kl7w9ve2fmS+HTTz0dvvDt0dk/H9wML4zC0pdevv3wx/aPt78w+LGfC621Eo87uv2MfdLjaNFngopffGorzD4z/AJ56ms3j93e+/XR7YOXVRV93Idh67vPDD/uf8F+8+b5/BoP78ufizkDAABQRuHj6A/uhZ3tncHujZ1Fc2/pq8Pj1rPO4PlgJ1z72uhMn188Ogtn7Fj4Z78ZbmaP25wNzwx+rqfCCzfGfvxW78Htg5duFX3c0e1n7JMeR4s+E5T3B5i/WGjJzroZ3f7MbNgq/Lj+bT9cC7PPvxBemDm6+PI5/BoFBgAAAEXlHVcW3gdrofWLw+PWvOvRPjw5YrhP/6OvhtduP7z/3upseKF/HH3p6OLLsZjz4c3wwuj2Z77bf2zRxz24/ex9EqLPBOX94eVvEkFG9AEAAKDe8o4ri+1e/5h1dPbOzz4TZsdiztFORp+nfu5L4Tur90497sFEH86S94eXP9EHAAAA8o4rH7174ea3jt6h6/PhhRtnhJxs4y/v+tlnw2vj1/oZn+jDWaq8ps/D+x4+5vx/jeNzTR8AAADKKH4c/XC3X35mFHw+Hb78ytiFlM/aWKj56lIkEsVijmv6kCn17l3fKvjOWgUfl7dJ/Brj8+5dAAAAlFHmODrb7e8eBZ+nwzPfPR18dm7Ohm9+65v9XQo3s7dwP7pvLNTEg8zN8M1C78pV9HGPnnfvapDs/fXz/hDzdu+Nrz48Fe2N4Rfc1sJXw+eOvkBWyz3u9IWcz+HXeMSyzx8AAACKKnMcvbX01fD5wXHq0+GZ7jvDt1k/ubXW6Fj2qfD5566E2/f6t927Ha48N3p519hbtp+6kPOH98K150YnRfziC+Fa9jKwD7bCa7/3ueFtnzt656+ij3v0PulxtOgzQQcHB7l/iPnLXj41+iI5sad/vTd2DZ1ijzv9lu1P/td41LLPHwAAAIoqfBw99tKp6AaXLBm7wPOpPR2+8K2bo1g0dqmTo7dsz7bZ/3VGZ/Gc/LHPvDJ2nZ6ij3vEPulxtOgzQYeHh7l/iNF9sBWuffvL4Qs/PwwuT//8r4RnLz48U6fU4965FL70c/37frn/xfrDsduf5K/xiGWfPwAAABRV+Dh67OVZ0R1dp/aDnbD26gvhy7/82QcvBfvsF58N33njeIx5Z+ZL4dPHQtBom9dC68tfCJ8dRJ3Rj31wNtBjPO6MfdLjaNFnwh7nIlQpzEWcAQAAeByOox+f6DNhP/rRj3L/MFNf9nkDAABAWY6jH5/oM2GlX+KVyLy0CwAAgMfhOPrxiT4VKHP18RTmXbsAAAD4JBxHPx7RpwLTVimd5QMAAMAn4Tj68Yg+FZmW1yS6lg8AAABPguPo8kSfCu3t7eX+Aaey7PMDAACAJ8VxdDmiT4VSPz3Ny7oAAAB4khxHlyP6VOzHP/5x7h9005d9XgAAAPCkOY4uTvSpgdS+YAUfAAAAzpPj6GJEn5pI5QtW8AEAAGASHEc/muhTI9lr95p6Uars9+0aPgAAAEyS4+iziT411LS3ofO27AAAAFTJcXQ+0aemstq3v7+f+8VRl2W/P2f3AAAAUAeOo08TfWou+2LICuBHH32U+wUz6WW/j+z3I/YAAABQR46jHxJ9GiT7Ajk4OBiUwey1f+f9BZz9/Nmvk/162a8r9AAAANAk034cLfoAAAAAJEj0AQAAAEiQ6AMAAABQU+9sbIdvXXgtfPFXvxX+j08/G/7W3/1S+J/+5j8cLPv/2W3Zfdljssc+FML/D0dD0x4w8TKiAAAAAElFTkSuQmCC;labelBorderColor=default;labelBackgroundColor=none;imageBorder=default;strokeWidth=0.5;" parent="1" vertex="1">
          <mxGeometry x="370" y="140" width="160" height="94.46" as="geometry" />
        </mxCell>
        <mxCell id="Q7jJPxUvrerCB2hbGKd4-22" value="&lt;b&gt;Day-ahead Prices&lt;/b&gt;" style="text;html=1;strokeColor=none;fillColor=none;align=center;verticalAlign=middle;whiteSpace=wrap;rounded=0;" parent="1" vertex="1">
          <mxGeometry x="370" y="110" width="160" height="30" as="geometry" />
        </mxCell>
        <mxCell id="Q7jJPxUvrerCB2hbGKd4-28" style="edgeStyle=orthogonalEdgeStyle;rounded=0;orthogonalLoop=1;jettySize=auto;html=1;exitX=0.5;exitY=1;exitDx=0;exitDy=0;entryX=0.5;entryY=0;entryDx=0;entryDy=0;" parent="1" source="Q7jJPxUvrerCB2hbGKd4-27" target="Q7jJPxUvrerCB2hbGKd4-22" edge="1">
          <mxGeometry relative="1" as="geometry" />
        </mxCell>
        <mxCell id="Q7jJPxUvrerCB2hbGKd4-27" value="&lt;b&gt;Timeframe&lt;/b&gt;" style="rounded=1;whiteSpace=wrap;html=1;fillColor=#ffff88;strokeColor=#36393d;" parent="1" vertex="1">
          <mxGeometry x="365" y="50" width="170" height="40" as="geometry" />
        </mxCell>
        <mxCell id="Q7jJPxUvrerCB2hbGKd4-29" value="" style="shape=curlyBracket;whiteSpace=wrap;html=1;rounded=1;labelPosition=left;verticalLabelPosition=middle;align=right;verticalAlign=middle;" parent="1" vertex="1">
          <mxGeometry x="535" y="10" width="20" height="120" as="geometry" />
        </mxCell>
        <mxCell id="m0VoY_4VSjMQqTjGjfMr-7" style="edgeStyle=orthogonalEdgeStyle;rounded=0;orthogonalLoop=1;jettySize=auto;html=1;exitX=1;exitY=0.5;exitDx=0;exitDy=0;entryX=0.5;entryY=0;entryDx=0;entryDy=0;" parent="1" source="Q7jJPxUvrerCB2hbGKd4-30" target="m0VoY_4VSjMQqTjGjfMr-5" edge="1">
          <mxGeometry relative="1" as="geometry" />
        </mxCell>
        <mxCell id="Q7jJPxUvrerCB2hbGKd4-30" value="1 week: 24 * 7 = 168 hours" style="text;html=1;strokeColor=none;fillColor=none;align=center;verticalAlign=middle;whiteSpace=wrap;rounded=0;fontStyle=1" parent="1" vertex="1">
          <mxGeometry x="560" width="160" height="30" as="geometry" />
        </mxCell>
        <mxCell id="m0VoY_4VSjMQqTjGjfMr-8" style="edgeStyle=orthogonalEdgeStyle;rounded=0;orthogonalLoop=1;jettySize=auto;html=1;exitX=1;exitY=0.5;exitDx=0;exitDy=0;entryX=0;entryY=0.5;entryDx=0;entryDy=0;" parent="1" source="Q7jJPxUvrerCB2hbGKd4-31" target="m0VoY_4VSjMQqTjGjfMr-5" edge="1">
          <mxGeometry relative="1" as="geometry" />
        </mxCell>
        <mxCell id="Q7jJPxUvrerCB2hbGKd4-31" value="1 month: 24 * 30 = 720 hours" style="text;html=1;strokeColor=none;fillColor=none;align=center;verticalAlign=middle;whiteSpace=wrap;rounded=0;fontStyle=1" parent="1" vertex="1">
          <mxGeometry x="560" y="55" width="170" height="30" as="geometry" />
        </mxCell>
        <mxCell id="m0VoY_4VSjMQqTjGjfMr-9" style="edgeStyle=orthogonalEdgeStyle;rounded=0;orthogonalLoop=1;jettySize=auto;html=1;exitX=1;exitY=0.5;exitDx=0;exitDy=0;entryX=0.5;entryY=1;entryDx=0;entryDy=0;" parent="1" source="Q7jJPxUvrerCB2hbGKd4-32" target="m0VoY_4VSjMQqTjGjfMr-5" edge="1">
          <mxGeometry relative="1" as="geometry" />
        </mxCell>
        <mxCell id="Q7jJPxUvrerCB2hbGKd4-32" value="1 year: 24 * 365 = 8760 hours" style="text;html=1;strokeColor=none;fillColor=none;align=center;verticalAlign=middle;whiteSpace=wrap;rounded=0;fontStyle=1" parent="1" vertex="1">
          <mxGeometry x="560" y="110" width="170" height="30" as="geometry" />
        </mxCell>
        <mxCell id="Q7jJPxUvrerCB2hbGKd4-33" value="&lt;b&gt;Reduce Investment Cost&lt;/b&gt;" style="rounded=1;whiteSpace=wrap;html=1;fillColor=#ffe6cc;strokeColor=#d79b00;" parent="1" vertex="1">
          <mxGeometry x="160" y="90" width="150" height="40" as="geometry" />
        </mxCell>
        <mxCell id="m0VoY_4VSjMQqTjGjfMr-1" value="&lt;b&gt;&lt;font color=&quot;#ff0000&quot;&gt;eff_SOEC&lt;/font&gt;&lt;/b&gt;" style="text;html=1;strokeColor=none;fillColor=none;align=center;verticalAlign=middle;whiteSpace=wrap;rounded=0;" parent="1" vertex="1">
          <mxGeometry x="200" y="230" width="60" height="30" as="geometry" />
        </mxCell>
        <mxCell id="m0VoY_4VSjMQqTjGjfMr-2" value="&lt;b&gt;&lt;font color=&quot;#ff0000&quot;&gt;eff_SOFC&lt;/font&gt;&lt;/b&gt;" style="text;html=1;strokeColor=none;fillColor=none;align=center;verticalAlign=middle;whiteSpace=wrap;rounded=0;" parent="1" vertex="1">
          <mxGeometry x="640" y="230" width="60" height="30" as="geometry" />
        </mxCell>
        <mxCell id="m0VoY_4VSjMQqTjGjfMr-3" value="&lt;b&gt;&lt;font color=&quot;#ea6b66&quot;&gt;f(V_max) + sum(E(t) * Price(t))&lt;/font&gt;&lt;/b&gt;" style="text;html=1;strokeColor=none;fillColor=none;align=center;verticalAlign=middle;whiteSpace=wrap;rounded=0;" parent="1" vertex="1">
          <mxGeometry x="145" y="140" width="180" height="30" as="geometry" />
        </mxCell>
        <mxCell id="m0VoY_4VSjMQqTjGjfMr-4" value="&lt;span style=&quot;font-family: Helvetica; font-size: 12px; font-style: normal; font-variant-ligatures: normal; font-variant-caps: normal; letter-spacing: normal; orphans: 2; text-align: center; text-indent: 0px; text-transform: none; widows: 2; word-spacing: 0px; -webkit-text-stroke-width: 0px; background-color: rgb(251, 251, 251); text-decoration-thickness: initial; text-decoration-style: initial; text-decoration-color: initial; float: none; display: inline !important;&quot;&gt;&lt;b style=&quot;&quot;&gt;&lt;font color=&quot;#ff0000&quot;&gt;V_max&lt;/font&gt;&lt;/b&gt;&lt;/span&gt;" style="text;whiteSpace=wrap;html=1;" parent="1" vertex="1">
          <mxGeometry x="430" y="250" width="40" height="30" as="geometry" />
        </mxCell>
        <mxCell id="m0VoY_4VSjMQqTjGjfMr-5" value="&lt;b style=&quot;border-color: var(--border-color); color: rgb(0, 0, 0); font-family: Helvetica; font-size: 12px; font-style: normal; font-variant-ligatures: normal; font-variant-caps: normal; letter-spacing: normal; orphans: 2; text-align: center; text-indent: 0px; text-transform: none; widows: 2; word-spacing: 0px; -webkit-text-stroke-width: 0px; background-color: rgb(251, 251, 251); text-decoration-thickness: initial; text-decoration-style: initial; text-decoration-color: initial;&quot;&gt;&lt;font style=&quot;border-color: var(--border-color);&quot; color=&quot;#ea6b66&quot;&gt;Price(t)&lt;/font&gt;&lt;/b&gt;" style="text;whiteSpace=wrap;html=1;" parent="1" vertex="1">
          <mxGeometry x="750" y="57.5" width="40" height="25" as="geometry" />
        </mxCell>
        <UserObject label="&lt;b&gt;&lt;a href=&quot;https://transparency.entsoe.eu/transmission-domain/r2/dayAheadPrices/show?name=&amp;amp;defaultValue=false&amp;amp;viewType=TABLE&amp;amp;areaType=BZN&amp;amp;atch=false&amp;amp;dateTime.dateTime=13.12.2023+00:00|CET|DAY&amp;amp;biddingZone.values=CTY|10YSE-1--------K!BZN|10Y1001A1001A47J&amp;amp;resolution.values=PT60M&amp;amp;dateTime.timezone=CET_CEST&amp;amp;dateTime.timezone_input=CET+(UTC+1)+/+CEST+(UTC+2)&quot;&gt;entsoe&lt;/a&gt;&lt;/b&gt;" link="https://transparency.entsoe.eu/transmission-domain/r2/dayAheadPrices/show?name=&amp;defaultValue=false&amp;viewType=TABLE&amp;areaType=BZN&amp;atch=false&amp;dateTime.dateTime=13.12.2023+00:00|CET|DAY&amp;biddingZone.values=CTY|10YFR-RTE------C!BZN|10YFR-RTE------C&amp;resolution.values=PT30M&amp;dateTime.timezone=CET_CEST&amp;dateTime.timezone_input=CET+(UTC+1)+/+CEST+(UTC+2)" id="m0VoY_4VSjMQqTjGjfMr-10">
          <mxCell style="text;html=1;strokeColor=none;fillColor=none;align=center;verticalAlign=middle;whiteSpace=wrap;rounded=0;" parent="1" vertex="1">
            <mxGeometry x="420" y="20" width="60" height="30" as="geometry" />
          </mxCell>
        </UserObject>
      </root>
    </mxGraphModel>
  </diagram>
</mxfile>
